<svg width="693" height="589" viewBox="0 0 693 589" fill="none" xmlns="http://www.w3.org/2000/svg">
<path opacity="0.2" d="M224.79 456.269C205.986 428.72 188.657 400.187 162.003 378.726C116.762 342.3 41.9981 336.078 14.6802 287.096C-9.29087 244.116 -1.77009 180.731 34.6431 150.368C77.3597 114.748 152.777 144.739 207.466 126.338C239.083 115.701 255.858 85.5238 282.44 66.995C316.667 43.1372 343.39 -5.39969 387.668 0.731081C432.835 6.98507 443.52 71.1994 482.736 94.7283C518.493 116.182 568.796 104.208 601.862 129.244C635.172 154.465 653.259 194.046 663.878 231.88C674.434 269.488 658.858 306.782 662.437 345.05C667.016 394.021 706.421 445.183 687.992 489.761C670.359 532.411 616.138 551.443 570.215 568.12C526.915 583.843 478.475 581.815 430.963 583.098C385.814 584.317 335.321 599.503 296.324 575.514C254.84 549.994 251.371 495.211 224.79 456.269Z" fill="#8860D0"/>
</svg>
