<svg width="602" height="547" viewBox="0 0 602 547" fill="none" xmlns="http://www.w3.org/2000/svg">
<path opacity="0.2" d="M409.693 61.0394C447.033 73.62 499.537 50.2214 527.259 75.4764C555.717 101.403 538.746 145.547 541.813 181.403C544.139 208.599 534.767 236.072 543.239 262.317C555.518 300.353 603.556 328.231 601.961 367.732C600.475 404.554 561.915 431.647 535.252 460.155C505.653 491.803 481.637 535.688 436.148 545.026C389.874 554.525 347.252 519.595 301.564 508.126C262.583 498.341 218.432 502.078 185.001 481.984C151.887 462.082 143.953 422.221 116.261 396.75C83.7237 366.822 26.4348 357.087 7.90365 319.088C-10.1244 282.121 6.42102 238.597 20.4706 200.33C33.9824 163.528 50.4263 122.639 87.6596 101.857C125.994 80.4612 181.526 106.793 221.633 88.0526C260.284 69.993 261.41 6.68117 304.644 0.471073C346.476 -5.53783 370.13 47.7094 409.693 61.0394Z" fill="#84CEEB"/>
</svg>
