<svg width="551" height="506" viewBox="0 0 551 506" fill="none" xmlns="http://www.w3.org/2000/svg">
<path opacity="0.2" d="M223.151 18.3284C260.072 14.579 284.556 3.47163 319.998 18.3283C357.951 34.238 356.457 61.8992 389.227 87.9456C421.39 113.509 472.598 94.2143 503.207 121.79C532.736 148.391 536.37 193.256 548.241 231.198C561.812 274.574 510.082 325.871 503.207 369.5C496.289 413.407 548.179 450.993 510.454 470.995C471.125 491.847 420.936 468.389 375.624 469.68C344.06 470.58 313.43 472.143 282.569 477.489C244.309 484.116 210.413 507.629 171.104 505.106C126.47 502.241 74.6608 496.572 42.8619 462.103C11.2733 427.862 9.7125 374.644 8.56636 328.923C7.545 288.179 37.6283 254.406 36.6341 213.663C35.496 167.026 -10.962 121.201 2.43485 77.652C15.0897 36.5151 60.8475 13.9253 101.435 3.01636C140.462 -7.47329 182.626 22.4438 223.151 18.3284Z" fill="#84CEEB"/>
</svg>
