<svg width="29" height="21" viewBox="0 0 29 21" fill="none" xmlns="http://www.w3.org/2000/svg">
<path d="M26.4788 15.6119V3.58838C26.9694 3.58838 27.4399 3.78327 27.7868 4.13016C28.1337 4.47706 28.3286 4.94756 28.3286 5.43815V18.3865C28.3286 18.8771 28.1337 19.3476 27.7868 19.6945C27.4399 20.0414 26.9694 20.2363 26.4788 20.2363H17.8034C19.5359 19.0328 21.5947 18.3874 23.7042 18.3865C24.4401 18.3865 25.1458 18.0942 25.6662 17.5739C26.1865 17.0535 26.4788 16.3478 26.4788 15.6119ZM2.43185 3.58838V15.6119C2.43185 16.3478 2.72418 17.0535 3.24453 17.5739C3.76487 18.0942 4.47062 18.3865 5.2065 18.3865C7.31597 18.3874 9.37482 19.0328 11.1073 20.2363H2.43185C1.94126 20.2363 1.47076 20.0414 1.12387 19.6945C0.776966 19.3476 0.58208 18.8771 0.58208 18.3865V5.43815C0.58208 4.94756 0.776966 4.47706 1.12387 4.13016C1.47076 3.78327 1.94126 3.58838 2.43185 3.58838Z" fill="url(#paint0_linear_530_6281)"/>
<path d="M23.9145 0C24.1598 0 24.395 0.0974431 24.5685 0.270893C24.7419 0.444342 24.8394 0.67959 24.8394 0.924884V15.723C24.8394 15.9683 24.7419 16.2036 24.5685 16.377C24.395 16.5505 24.1598 16.6479 23.9145 16.6479C21.132 16.6508 18.4326 17.5963 16.2564 19.3301L15.5905 19.8665V0.166479C15.8871 0.0588016 16.1999 0.0025014 16.5154 0H23.9145ZM4.4919 15.723V0.924884C4.4919 0.67959 4.58934 0.444342 4.76279 0.270893C4.93624 0.0974431 5.17149 0 5.41678 0H12.8159C13.1314 0.0025014 13.4442 0.0588016 13.7407 0.166479V19.8665L13.0748 19.3301C10.8986 17.5963 8.19923 16.6508 5.41678 16.6479C5.17149 16.6479 4.93624 16.5505 4.76279 16.377C4.58934 16.2036 4.4919 15.9683 4.4919 15.723Z" fill="url(#paint1_linear_530_6281)"/>
<defs>
<linearGradient id="paint0_linear_530_6281" x1="28.3286" y1="11.9123" x2="0.582081" y2="11.9123" gradientUnits="userSpaceOnUse">
<stop stop-color="#8860D0"/>
<stop offset="1" stop-color="#5580E9"/>
</linearGradient>
<linearGradient id="paint1_linear_530_6281" x1="24.8394" y1="9.93326" x2="4.4919" y2="9.93326" gradientUnits="userSpaceOnUse">
<stop stop-color="#8860D0"/>
<stop offset="1" stop-color="#5580E9"/>
</linearGradient>
</defs>
</svg>
