<svg width="19" height="23" viewBox="0 0 19 23" fill="none" xmlns="http://www.w3.org/2000/svg">
<path d="M3.79942 17.6073H14.804C15.6796 17.6073 16.5193 17.2595 17.1384 16.6404C17.7576 16.0213 18.1054 15.1815 18.1054 14.306V3.30138C18.1054 2.4258 17.7576 1.58608 17.1384 0.966951C16.5193 0.347823 15.6796 0 14.804 0H3.79942C2.92384 0 2.08413 0.347823 1.465 0.966951C0.84587 1.58608 0.498047 2.4258 0.498047 3.30138V18.7078C0.498047 19.5834 0.84587 20.4231 1.465 21.0422C2.08413 21.6614 2.92384 22.0092 3.79942 22.0092H17.0049C17.2968 22.0092 17.5767 21.8932 17.7831 21.6869C17.9895 21.4805 18.1054 21.2006 18.1054 20.9087C18.1054 20.6169 17.9895 20.337 17.7831 20.1306C17.5767 19.9242 17.2968 19.8083 17.0049 19.8083H3.79942C3.50756 19.8083 3.22766 19.6923 3.02128 19.4859C2.81491 19.2796 2.69897 18.9997 2.69897 18.7078C2.69897 18.4159 2.81491 18.136 3.02128 17.9297C3.22766 17.7233 3.50756 17.6073 3.79942 17.6073ZM2.69897 3.30138C2.69897 3.00952 2.81491 2.72961 3.02128 2.52324C3.22766 2.31686 3.50756 2.20092 3.79942 2.20092H14.804C15.0959 2.20092 15.3758 2.31686 15.5822 2.52324C15.7885 2.72961 15.9045 3.00952 15.9045 3.30138V14.306C15.9045 14.5978 15.7885 14.8777 15.5822 15.0841C15.3758 15.2905 15.0959 15.4064 14.804 15.4064H3.79942C3.42458 15.4062 3.05244 15.4699 2.69897 15.5946V3.30138Z" fill="url(#paint0_linear_530_6284)"/>
<path d="M9.30212 13.2054C9.59398 13.2054 9.87389 13.0895 10.0803 12.8831C10.2866 12.6767 10.4026 12.3968 10.4026 12.105V8.80358C10.4026 8.51172 10.2866 8.23182 10.0803 8.02544C9.87389 7.81907 9.59398 7.70312 9.30212 7.70312C9.01026 7.70312 8.73035 7.81907 8.52398 8.02544C8.3176 8.23182 8.20166 8.51172 8.20166 8.80358V12.105C8.20166 12.3968 8.3176 12.6767 8.52398 12.8831C8.73035 13.0895 9.01026 13.2054 9.30212 13.2054Z" fill="url(#paint1_linear_530_6284)"/>
<path d="M9.30212 6.60229C9.90989 6.60229 10.4026 6.10959 10.4026 5.50183C10.4026 4.89406 9.90989 4.40137 9.30212 4.40137C8.69435 4.40137 8.20166 4.89406 8.20166 5.50183C8.20166 6.10959 8.69435 6.60229 9.30212 6.60229Z" fill="url(#paint2_linear_530_6284)"/>
<defs>
<linearGradient id="paint0_linear_530_6284" x1="0.498047" y1="11.0046" x2="18.1054" y2="11.0046" gradientUnits="userSpaceOnUse">
<stop stop-color="#8860D0"/>
<stop offset="1" stop-color="#5580E9"/>
</linearGradient>
<linearGradient id="paint1_linear_530_6284" x1="8.20166" y1="10.4543" x2="10.4026" y2="10.4543" gradientUnits="userSpaceOnUse">
<stop stop-color="#8860D0"/>
<stop offset="1" stop-color="#5580E9"/>
</linearGradient>
<linearGradient id="paint2_linear_530_6284" x1="8.20166" y1="5.50183" x2="10.4026" y2="5.50183" gradientUnits="userSpaceOnUse">
<stop stop-color="#8860D0"/>
<stop offset="1" stop-color="#5580E9"/>
</linearGradient>
</defs>
</svg>
