<svg width="28" height="22" viewBox="0 0 28 22" fill="none" xmlns="http://www.w3.org/2000/svg">
<path fill-rule="evenodd" clip-rule="evenodd" d="M16.9611 0C17.755 0 18.4655 0.492844 18.7436 1.23646C19.0217 1.98007 19.7322 2.47291 20.5261 2.47291H23.9316C26.1741 2.47291 27.9921 4.29085 27.9921 6.5334V17.7001C27.9921 19.9426 26.1741 21.7606 23.9316 21.7606H4.30805C2.0655 21.7606 0.247559 19.9426 0.247559 17.7001V6.53339C0.247559 4.29085 2.0655 2.47291 4.30804 2.47291H7.71283C8.50675 2.47291 9.21726 1.98007 9.49537 1.23646C9.77348 0.492844 10.484 0 11.2779 0H16.9611ZM14.3508 16.8149C17.0324 16.8149 19.2061 14.49 19.2061 11.6221C19.2061 8.75417 17.0324 6.42927 14.3508 6.42927C11.6693 6.42927 9.49556 8.75417 9.49556 11.6221C9.49556 14.49 11.6693 16.8149 14.3508 16.8149Z" fill="url(#paint0_linear_530_6268)"/>
<defs>
<linearGradient id="paint0_linear_530_6268" x1="0.247559" y1="10.8802" x2="27.9921" y2="10.8802" gradientUnits="userSpaceOnUse">
<stop stop-color="#8860D0"/>
<stop offset="1" stop-color="#5580E9"/>
</linearGradient>
</defs>
</svg>
