<svg width="109" height="70" viewBox="0 0 109 70" fill="none" xmlns="http://www.w3.org/2000/svg">
<path fill-rule="evenodd" clip-rule="evenodd" d="M64.2021 0C65.802 0 67.2348 0.990408 67.8001 2.48708L68.7523 5.00784C69.3176 6.50452 70.7504 7.49493 72.3503 7.49493H92.7399C94.8641 7.49493 96.5861 9.21691 96.5861 11.3411V62.1079C96.5861 64.2321 94.8641 65.954 92.7399 65.954H15.5034C13.3792 65.954 11.6572 64.2321 11.6572 62.1079V11.3411C11.6572 9.21691 13.3792 7.49493 15.5034 7.49493H35.8924C37.4923 7.49493 38.9251 6.50452 39.4904 5.00784L40.4426 2.48709C41.0079 0.990408 42.4407 0 44.0406 0H64.2021ZM54.8299 50.9644C63.0383 50.9644 69.6924 43.9178 69.6924 35.2254C69.6924 26.533 63.0383 19.4864 54.8299 19.4864C46.6215 19.4864 39.9673 26.533 39.9673 35.2254C39.9673 43.9178 46.6215 50.9644 54.8299 50.9644Z" fill="url(#paint0_linear_530_6293)"/>
<path fill-rule="evenodd" clip-rule="evenodd" d="M0 45.2056C0 41.5046 4.3579 38.1008 11.6572 35.4077V38.6189C9.31072 39.5467 7.40088 40.5274 5.95738 41.5238C3.49754 43.2218 3 44.516 3 45.2056C3 45.8953 3.49754 47.1895 5.95738 48.8875C8.32492 50.5218 11.9469 52.1138 16.6926 53.4994C22.9938 55.3391 30.9762 56.7295 39.9663 57.4519V60.4614C16.941 58.6446 0 52.5028 0 45.2056ZM53.2885 61.0055C53.5656 61.0067 53.8432 61.0073 54.1213 61.0073C84.0117 61.0073 108.243 53.9327 108.243 45.2056C108.243 41.5047 103.885 38.101 96.5861 35.408V38.6191C98.9323 39.5468 100.842 40.5275 102.285 41.5238C104.745 43.2218 105.243 44.516 105.243 45.2056C105.243 45.8953 104.745 47.1895 102.285 48.8875C99.9177 50.5218 96.2957 52.1138 91.5501 53.4994C82.0986 56.2589 68.8646 58.0073 54.1213 58.0073C53.8432 58.0073 53.5655 58.0067 53.2885 58.0055V61.0055Z" fill="black"/>
<path d="M28.8818 48.8164L43.0772 59.7641L25.0602 66.6142" stroke="#170A08" stroke-width="3" stroke-linecap="round"/>
<defs>
<linearGradient id="paint0_linear_530_6293" x1="11.6572" y1="32.9769" x2="96.5861" y2="32.9769" gradientUnits="userSpaceOnUse">
<stop stop-color="#8860D0"/>
<stop offset="1" stop-color="#5580E9"/>
</linearGradient>
</defs>
</svg>
