<svg width="26" height="25" viewBox="0 0 26 25" fill="none" xmlns="http://www.w3.org/2000/svg">
<path d="M17.9007 20.5123H3.02936C2.34959 20.5114 1.69789 20.241 1.21722 19.7604C0.736546 19.2797 0.466146 18.628 0.465332 17.9482L0.465332 2.56403C0.465332 1.15074 1.61607 0 3.02936 0H11.2343C11.3412 6.10231e-06 11.4454 0.0334232 11.5324 0.0955783C11.6194 0.157733 11.6847 0.245518 11.7194 0.346657L18.3859 19.8333C18.4118 19.9105 18.4191 19.9928 18.4071 20.0733C18.3951 20.1539 18.3641 20.2304 18.3168 20.2967C18.2694 20.363 18.207 20.4171 18.1347 20.4546C18.0624 20.492 17.9822 20.5118 17.9007 20.5123ZM5.6087 6.61291C4.76052 6.61291 4.87394 10.1733 4.87394 11.0215L3.4044 10.6541L2.66963 11.7563L4.13917 14.328C4.13917 15.1761 5.6087 16.1649 6.34347 16.8996H10.0173L11.8542 15.7975V10.2867L11.1195 7.34767L10.0173 6.61291L8.91516 5.87814H7.07824L5.6087 6.61291Z" fill="url(#paint0_linear_530_6274)"/>
<path d="M22.5164 24.6148H14.3115C14.2072 24.6148 14.1053 24.583 14.0196 24.5236C13.9338 24.4642 13.8682 24.3801 13.8315 24.2825L12.2931 20.18C12.2452 20.0527 12.2499 19.9116 12.306 19.7878C12.3622 19.6639 12.4653 19.5674 12.5926 19.5195C12.7199 19.4717 12.861 19.4763 12.9848 19.5325C13.1087 19.5887 13.2052 19.6917 13.253 19.819L14.6674 23.5892H22.5164C23.3646 23.5892 24.0548 22.8989 24.0548 22.0508V6.66657C24.0548 5.81839 23.3646 5.12815 22.5164 5.12815H12.7731C12.6371 5.12815 12.5066 5.07412 12.4105 4.97795C12.3143 4.88178 12.2603 4.75135 12.2603 4.61535C12.2603 4.47934 12.3143 4.34891 12.4105 4.25274C12.5066 4.15657 12.6371 4.10254 12.7731 4.10254H22.5164C23.9297 4.10254 25.0804 5.25328 25.0804 6.66657V22.0508C25.0804 23.4641 23.9297 24.6148 22.5164 24.6148Z" fill="url(#paint1_linear_530_6274)"/>
<path d="M14.3115 24.6147C14.2129 24.6148 14.1163 24.5864 14.0334 24.533C13.9505 24.4796 13.8847 24.4034 13.844 24.3135C13.8033 24.2237 13.7894 24.124 13.8039 24.0265C13.8184 23.9289 13.8608 23.8376 13.9259 23.7635L17.5155 19.661C17.5599 19.6103 17.6138 19.5689 17.6743 19.539C17.7347 19.5091 17.8004 19.4914 17.8676 19.487C17.9348 19.4825 18.0023 19.4913 18.0661 19.5129C18.13 19.5345 18.1889 19.5685 18.2396 19.6128C18.2903 19.6572 18.3318 19.7111 18.3617 19.7716C18.3915 19.832 18.4092 19.8977 18.4137 19.9649C18.4182 20.0321 18.4093 20.0996 18.3878 20.1634C18.3662 20.2273 18.3322 20.2862 18.2878 20.3369L14.6982 24.4394C14.6499 24.4944 14.5904 24.5385 14.5238 24.5688C14.4571 24.599 14.3847 24.6147 14.3115 24.6147Z" fill="url(#paint2_linear_530_6274)"/>
<path d="M11.1492 6.71289C10.7907 6.43358 10.3022 6.41294 9.92286 6.62147C9.89339 6.38247 9.78413 6.15331 9.5153 5.94383C9.33607 5.80417 8.99727 5.68419 8.59832 5.73338C8.35895 5.7629 8.2092 5.86224 8.04962 5.88192C8.02997 5.72259 7.94036 5.65276 7.84092 5.50326C7.38304 5.07446 6.58514 5.17284 6.24514 5.70003C6.10521 5.87904 5.96527 6.05805 5.98492 6.21738C5.82534 6.23706 5.65594 6.17707 5.49636 6.19675C5.09742 6.24594 4.87769 6.43479 4.6678 6.7033C4.31797 7.15083 4.39655 7.78816 4.39655 7.78816L4.76984 10.8155C4.501 10.606 4.05294 10.2569 3.49441 10.3257C3.33483 10.3454 3.10529 10.4546 2.95553 10.5539C2.65602 10.7526 2.52592 11.0113 2.48542 11.3398C2.34428 12.166 3.19991 13.1928 3.20974 13.2724C3.29935 13.3423 4.43244 15.3054 5.33839 16.0833C6.25416 16.9409 7.20061 17.3904 9.43471 17.1149C11.7486 16.8296 12.6287 15.427 12.2849 12.6387L11.7446 8.25703C11.7348 8.17736 11.6967 7.21153 11.1492 6.71289ZM6.72147 6.93534C6.692 6.69634 6.54345 6.14852 7.02218 6.08948C7.42113 6.04029 7.47024 6.43862 7.51936 6.83696L7.91229 10.0236C7.94176 10.2626 8.12099 10.4023 8.36036 10.3728C8.59972 10.3432 8.73966 10.1642 8.71019 9.92523L8.3369 6.89791C8.3369 6.89791 8.29761 6.57924 8.69655 6.53005C9.17529 6.47102 9.18391 7.19785 9.18391 7.19785L9.50808 9.82685C9.53755 10.0658 9.71677 10.2055 9.95614 10.176C10.1955 10.1465 10.3354 9.96746 10.306 9.72846L10.0702 7.81647C10.0604 7.7368 10.0113 7.33847 10.4102 7.28928C10.8092 7.24008 10.9074 8.03675 10.9074 8.03675L11.487 12.7371C11.821 15.4457 10.8525 16.1313 9.33647 16.3182C7.42153 16.5543 6.65431 16.2446 5.90794 15.4469C5.0916 14.7388 3.87872 12.7856 3.8689 12.7059C3.60006 12.4964 3.1925 11.8188 3.23299 11.4903C3.22317 11.4106 3.29314 11.3211 3.3631 11.2316C3.44289 11.2217 3.51286 11.1322 3.51286 11.1322C3.83201 11.0929 4.20029 11.4519 4.29972 11.6014L4.86687 12.2593C4.9663 12.4088 5.2155 12.459 5.36525 12.3596C5.68441 12.3203 5.74455 12.1511 5.7249 11.9918L5.21409 7.84911C5.1748 7.53044 5.11586 7.05244 5.51481 7.00325C5.83396 6.9639 5.94322 7.19306 5.99234 7.59139L6.31651 10.2204C6.34598 10.4594 6.5252 10.599 6.76457 10.5695C7.00394 10.54 7.14387 10.361 7.1144 10.122L6.72147 6.93534Z" fill="url(#paint3_linear_530_6274)"/>
<path fill-rule="evenodd" clip-rule="evenodd" d="M15.4654 13.8148H22.2761C22.47 13.8148 22.6287 13.967 22.6287 14.153V14.8295C22.6287 14.9192 22.5915 15.0053 22.5254 15.0687C22.4593 15.1321 22.3696 15.1678 22.2761 15.1678L15.9702 15.1441C15.8767 15.1441 15.9882 15.0152 15.9221 14.9518C15.856 14.8883 15.8019 14.777 15.8019 14.6873L15.6817 14.471C15.6817 14.3813 15.3993 14.1739 15.4654 14.1104C15.5315 14.047 15.3719 13.8148 15.4654 13.8148ZM14.5199 11.1088H22.2761C22.47 11.1088 22.6287 11.261 22.6287 11.447V12.1235C22.6287 12.2132 22.5915 12.2993 22.5254 12.3627C22.4593 12.4261 22.3696 12.4618 22.2761 12.4618L14.8164 12.4893C14.7229 12.4893 14.9306 12.4325 14.8645 12.3691C14.7983 12.3056 14.8164 12.2248 14.7443 12.1527L14.6481 11.8402C14.6481 11.7505 14.3416 11.2066 14.4077 11.1431C14.4739 11.0797 14.4264 11.1088 14.5199 11.1088ZM18.0455 16.5207H22.2761C22.47 16.5207 22.6287 16.673 22.6287 16.859V17.5355C22.6287 17.6252 22.5915 17.7112 22.5254 17.7747C22.4593 17.8381 22.3696 17.8737 22.2761 17.8737H18.0455C17.952 17.8737 17.8623 17.8381 17.7962 17.7747C17.73 17.7112 17.6929 17.6252 17.6929 17.5355V16.859C17.6929 16.7693 17.73 16.6832 17.7962 16.6198C17.8623 16.5564 17.952 16.5207 18.0455 16.5207ZM14.5199 8.40283H22.2761C22.47 8.40283 22.6287 8.55504 22.6287 8.74108V9.41757C22.6287 9.50728 22.5915 9.59331 22.5254 9.65675C22.4593 9.72018 22.3696 9.75582 22.2761 9.75582H14.5199C14.4264 9.75582 14.3367 9.72018 14.2706 9.65675C14.2045 9.59331 14.1674 9.50728 14.1674 9.41757V8.74108C14.1674 8.65137 14.2045 8.56534 14.2706 8.5019C14.3367 8.43847 14.4264 8.40283 14.5199 8.40283Z" fill="url(#paint4_linear_530_6274)"/>
<defs>
<linearGradient id="paint0_linear_530_6274" x1="0.465332" y1="10.2561" x2="18.4127" y2="10.2561" gradientUnits="userSpaceOnUse">
<stop stop-color="#8860D0"/>
<stop offset="1" stop-color="#5580E9"/>
</linearGradient>
<linearGradient id="paint1_linear_530_6274" x1="12.2603" y1="14.3587" x2="25.0804" y2="14.3587" gradientUnits="userSpaceOnUse">
<stop stop-color="#8860D0"/>
<stop offset="1" stop-color="#5580E9"/>
</linearGradient>
<linearGradient id="paint2_linear_530_6274" x1="13.7983" y1="22.0503" x2="18.4148" y2="22.0503" gradientUnits="userSpaceOnUse">
<stop stop-color="#8860D0"/>
<stop offset="1" stop-color="#5580E9"/>
</linearGradient>
<linearGradient id="paint3_linear_530_6274" x1="2.50288" y1="11.8836" x2="12.0516" y2="10.7062" gradientUnits="userSpaceOnUse">
<stop stop-color="#8860D0"/>
<stop offset="1" stop-color="#5580E9"/>
</linearGradient>
<linearGradient id="paint4_linear_530_6274" x1="22.6287" y1="13.1383" x2="14.1674" y2="13.1383" gradientUnits="userSpaceOnUse">
<stop stop-color="#8860D0"/>
<stop offset="1" stop-color="#5580E9"/>
</linearGradient>
</defs>
</svg>
